Coordinates
version=1
nRows=29
nColumns=38
inDegrees=no

Units are S.I. units (second, meters, Newtons, ...)
If the header above contains a line with 'inDegrees', this indicates whether rotational values are in degrees (yes) or radians (no).

endheader
time	pelvis_tilt	pelvis_list	pelvis_rotation	pelvis_tx	pelvis_ty	pelvis_tz	hip_flexion_r	hip_adduction_r	hip_rotation_r	knee_angle_r	ankle_angle_r	subtalar_angle_r	mtp_angle_r	hip_flexion_l	hip_adduction_l	hip_rotation_l	knee_angle_l	ankle_angle_l	subtalar_angle_l	mtp_angle_l	lumbar_extension	lumbar_bending	lumbar_rotation	arm_flex_r	arm_add_r	arm_rot_r	elbow_flex_r	pro_sup_r	wrist_flex_r	wrist_dev_r	arm_flex_l	arm_add_l	arm_rot_l	elbow_flex_l	pro_sup_l	wrist_flex_l	wrist_dev_l
1.42	-0.00363443	0.076994	-0.0263434	1.18059	0.969497	-0.313526	0.582071	-0.107524	0.0297782	-1.55447	0.199843	-0.0103617	-0.0050004	0.148326	0.224522	0.0457659	-0.707956	0.452946	-0.0290214	-0.00540595	-0.289862	-0.0769246	-0.101195	-0.655888	-0.137007	-0.0464661	1.94575	1.68742	-0.00428751	0.00297748	-0.25798	-0.19609	-0.0578699	2.11528	1.7628	0.0215068	0.00774612
1.43	-0.0129738	0.0667591	-0.0243314	1.18176	0.974043	-0.313685	0.604003	-0.0979198	0.017824	-1.50731	0.212143	-0.0103617	-0.0050004	0.11359	0.213626	0.0576546	-0.666957	0.427982	-0.0290214	-0.00540595	-0.275681	-0.0623005	-0.113281	-0.68969	-0.143944	-0.0580136	1.99274	1.68968	-0.00428751	0.00297748	-0.244721	-0.197416	-0.0382816	2.15091	1.74915	0.0215068	0.00774612
1.44	-0.0216573	0.0555091	-0.0229457	1.18326	0.97925	-0.313738	0.620257	-0.0848267	0.00739556	-1.45104	0.221658	-0.0103617	-0.0050004	0.0776834	0.200754	0.0669815	-0.623651	0.395368	-0.0290214	-0.00540595	-0.261808	-0.0465114	-0.122384	-0.723763	-0.15078	-0.0694097	2.04021	1.68879	-0.00428751	0.00297748	-0.232679	-0.201199	-0.0141061	2.18509	1.73221	0.0215068	0.00774612
1.45	-0.0296542	0.0434657	-0.0221718	1.18503	0.984964	-0.313701	0.63087	-0.0687552	-0.00112611	-1.38602	0.22873	-0.0103617	-0.0050004	0.0414984	0.1862	0.0731568	-0.579527	0.355543	-0.0290214	-0.00540595	-0.248457	-0.0297543	-0.128889	-0.757411	-0.157485	-0.0801402	2.08701	1.68451	-0.00428751	0.00297748	-0.222091	-0.206979	0.0131952	2.21686	1.71418	0.0215068	0.00774612
1.46	-0.037036	0.0309285	-0.0218549	1.18702	0.991015	-0.313606	0.636006	-0.0504252	-0.00743972	-1.31266	0.233803	-0.0103617	-0.0050004	0.00600825	0.17042	0.0759519	-0.536126	0.309256	-0.0290214	-0.00540595	-0.235689	-0.0123113	-0.133381	-0.789982	-0.164117	-0.0897521	2.13224	1.67715	-0.00428751	0.00297748	-0.213304	-0.214206	0.041986	2.24564	1.69703	0.0215068	0.00774612
1.47	-0.0439008	0.0182729	-0.0217593	1.1892	0.997228	-0.313485	0.63588	-0.0307162	-0.0113192	-1.23142	0.237331	-0.0103617	-0.0050004	-0.0278524	0.153998	0.0755099	-0.494966	0.257573	-0.0290214	-0.00540595	-0.223483	0.00542856	-0.136503	-0.820893	-0.170758	-0.0979364	2.17523	1.66755	-0.00428751	0.00297748	-0.206648	-0.222341	0.0707221	2.27118	1.68236	0.0215068	0.00774612
1.48	-0.05031	0.00593062	-0.0216394	1.19153	1.00343	-0.313376	0.630701	-0.0105906	-0.0126054	-1.14285	0.239702	-0.0103617	-0.0050004	-0.0592868	0.137606	0.072305	-0.457468	0.201867	-0.0290214	-0.00540595	-0.211805	0.0229713	-0.138828	-0.849643	-0.17745	-0.104581	2.2155	1.65699	-0.00428751	0.00297748	-0.202347	-0.230937	0.098155	2.29342	1.67127	0.0215068	0.00774612
1.49	-0.0562525	-0.00563621	-0.0213012	1.19398	1.00947	-0.313307	0.620666	0.00899554	-0.0112124	-1.04769	0.241191	-0.0103617	-0.0050004	-0.0876841	0.121942	0.0670689	-0.424898	0.143769	-0.0290214	-0.00540595	-0.200648	0.0397535	-0.140757	-0.875821	-0.184156	-0.109779	2.25272	1.64704	-0.00428751	0.00297748	-0.200464	-0.239672	0.123437	2.3124	1.66436	0.0215068	0.00774612
1.5	-0.0616498	-0.0159305	-0.020644	1.19652	1.01519	-0.313301	0.605988	0.0271895	-0.00715922	-0.946943	0.241946	-0.0103617	-0.0050004	-0.112637	0.107657	0.060704	-0.398329	0.0850992	-0.0290214	-0.00540595	-0.190048	0.0552191	-0.142468	-0.899102	-0.190743	-0.113798	2.28663	1.63929	-0.00428751	0.00297748	-0.200913	-0.24835	0.14613	2.32821	1.66169	0.0215068	0.00774612
1.51	-0.0664287	-0.0245401	-0.0196712	1.19912	1.02046	-0.313367	0.586941	0.0433046	-0.000605674	-0.841964	0.241996	-0.0103617	-0.0050004	-0.133944	0.0953044	0.0541901	-0.378618	0.0277696	-0.0290214	-0.00540595	-0.180103	0.0688627	-0.143936	-0.919224	-0.197006	-0.117001	2.31706	1.63502	-0.00428751	0.00297748	-0.203494	-0.256874	0.166131	2.34091	1.66277	0.0215068	0.00774612
1.52	-0.0704964	-0.0312371	-0.0184742	1.20178	1.02513	-0.313501	0.563949	0.0568687	0.00812163	-0.73456	0.24128	-0.0103617	-0.0050004	-0.151556	0.0852972	0.0484947	-0.366419	-0.0263221	-0.0290214	-0.00540595	-0.170939	0.0802783	-0.145001	-0.935959	-0.202711	-0.119752	2.3439	1.63499	-0.00428751	0.00297748	-0.207975	-0.265202	0.183546	2.35053	1.66662	0.0215068	0.00774612
1.53	-0.0737472	-0.0359649	-0.017198	1.20447	1.02909	-0.313687	0.537667	0.0676693	0.0185317	-0.627076	0.239689	-0.0103617	-0.0050004	-0.16551	0.077862	0.0444886	-0.362217	-0.0754009	-0.0290214	-0.00540595	-0.162697	0.0892273	-0.145448	-0.949087	-0.20765	-0.122322	2.36706	1.6393	-0.00428751	0.00297748	-0.214154	-0.273297	0.198545	2.3571	1.67199	0.0215068	0.00774612
1.54	-0.076077	-0.0388313	-0.0160007	1.20719	1.03224	-0.313899	0.509038	0.0757651	0.0300196	-0.522461	0.237125	-0.0103617	-0.0050004	-0.1759	0.0730202	0.042854	-0.366364	-0.117922	-0.0290214	-0.00540595	-0.155526	0.0956639	-0.145088	-0.958386	-0.211689	-0.124831	2.38647	1.64747	-0.00428751	0.00297748	-0.221902	-0.281085	0.211251	2.36066	1.67753	0.0215068	0.00774612
1.55	-0.0773966	-0.0400793	-0.0150173	1.2099	1.0345	-0.314104	0.479324	0.0814637	0.0419422	-0.42427	0.233565	-0.0103617	-0.0050004	-0.182847	0.070594	0.0439859	-0.3791	-0.152663	-0.0290214	-0.00540595	-0.149591	0.0997284	-0.143798	-0.963644	-0.214798	-0.127234	2.40214	1.65856	-0.00428751	0.00297748	-0.231166	-0.288434	0.221681	2.36125	1.68207	0.0215068	0.00774612
1.56	-0.0776406	-0.0400403	-0.0143364	1.21255	1.03584	-0.314268	0.450114	0.0852643	0.0536854	-0.33659	0.229126	-0.0103617	-0.0050004	-0.186468	0.0702308	0.0478948	-0.400553	-0.178798	-0.0290214	-0.00540595	-0.145054	0.10171	-0.141544	-0.964687	-0.217049	-0.129346	2.4141	1.67132	-0.00428751	0.00297748	-0.241941	-0.295151	0.229747	2.35895	1.6848	0.0215068	0.00774612
1.57	-0.0767979	-0.0390762	-0.0139903	1.21508	1.0362	-0.314364	0.423265	0.0877847	0.0646911	-0.263813	0.224086	-0.0103617	-0.0050004	-0.186861	0.0714284	0.054136	-0.430717	-0.195944	-0.0290214	-0.00540595	-0.142054	0.101997	-0.138365	-0.96141	-0.218603	-0.130904	2.42243	1.68442	-0.00428751	0.00297748	-0.25422	-0.300988	0.235291	2.35387	1.6853	0.0215068	0.00774612
1.58	-0.0749291	-0.0375551	-0.0139588	1.21736	1.03556	-0.314363	0.400742	0.0896824	0.0744467	-0.210202	0.218827	-0.0103617	-0.0050004	-0.184104	0.0735623	0.0618006	-0.46941	-0.204182	-0.0290214	-0.00540595	-0.140688	0.101034	-0.13435	-0.953793	-0.219674	-0.131629	2.42724	1.69664	-0.00428751	0.00297748	-0.267955	-0.305669	0.238133	2.3461	1.68358	0.0215068	0.00774612
1.59	-0.0721403	-0.0358474	-0.0141843	1.21931	1.0339	-0.314261	0.38436	0.0915808	0.0824562	-0.179298	0.213725	-0.0103617	-0.0050004	-0.178255	0.075917	0.0696105	-0.516231	-0.204066	-0.0290214	-0.00540595	-0.140998	0.0992656	-0.129607	-0.941901	-0.220495	-0.131273	2.42862	1.70703	-0.00428751	0.00297748	-0.283016	-0.308902	0.238109	2.33568	1.67999	0.0215068	0.00774612
1.6	-0.0685321	-0.0343012	-0.0145769	1.22087	1.03125	-0.314052	0.375485	0.0940165	0.088231	-0.173323	0.209054	-0.0103617	-0.0050004	-0.169395	0.0777296	0.0761354	-0.570528	-0.196583	-0.0290214	-0.00540595	-0.142992	0.0971279	-0.124244	-0.925862	-0.221273	-0.12967	2.42662	1.71505	-0.00428751	0.00297748	-0.299173	-0.310402	0.235083	2.32257	1.67512	0.0215068	0.00774612
1.61	-0.0641598	-0.0331979	-0.0150208	1.22196	1.02762	-0.313739	0.374759	0.0974151	0.0913518	-0.192744	0.205017	-0.0103617	-0.0050004	-0.15767	0.0782493	0.0800838	-0.631402	-0.183065	-0.0290214	-0.00540595	-0.146686	0.0950374	-0.118358	-0.90583	-0.222156	-0.12675	2.42117	1.72057	-0.00428751	0.00297748	-0.316093	-0.3099	0.228954	2.30661	1.66971	0.0215068	0.00774612
1.62	-0.0590185	-0.0327581	-0.0153798	1.22258	1.02298	-0.313332	0.38189	0.102082	0.0916133	-0.23602	0.201895	-0.0103617	-0.0050004	-0.143339	0.0768223	0.0805896	-0.697758	-0.165019	-0.0290214	-0.00540595	-0.152148	0.0933866	-0.11202	-0.881955	-0.223207	-0.122549	2.41208	1.7238	-0.00428751	0.00297748	-0.333342	-0.307161	0.219653	2.28747	1.66458	0.0215068	0.00774612
1.63	-0.053031	-0.033161	-0.0155092	1.2227	1.01742	-0.312867	0.395571	0.108212	0.0891857	-0.299596	0.200231	-0.0103617	-0.0050004	-0.126778	0.0729762	0.0774164	-0.768359	-0.143928	-0.0290214	-0.00540595	-0.159522	0.0925422	-0.10527	-0.854349	-0.22439	-0.117196	2.399	1.7251	-0.00428751	0.00297748	-0.350409	-0.301992	0.207163	2.26468	1.6606	0.0215068	0.00774612
1.64	-0.0460505	-0.0345818	-0.0152714	1.22241	1.01106	-0.312385	0.413594	0.115905	0.084681	-0.37826	0.200942	-0.0103617	-0.0050004	-0.108447	0.0664964	0.0710264	-0.841903	-0.121051	-0.0290214	-0.00540595	-0.168998	0.0928342	-0.0981015	-0.823091	-0.225577	-0.110908	2.38144	1.72488	-0.00428751	0.00297748	-0.366732	-0.294261	0.191541	2.23759	1.65863	0.0215068	0.00774612
1.65	-0.0378115	-0.0371859	-0.0145512	1.22178	1.00414	-0.311932	0.433249	0.125152	0.0790264	-0.465904	0.205296	-0.0103617	-0.0050004	-0.0887877	0.0574862	0.0625043	-0.917058	-0.0973013	-0.0290214	-0.00540595	-0.180691	0.0945221	-0.0904593	-0.78827	-0.22655	-0.103965	2.35888	1.72342	-0.00428751	0.00297748	-0.381757	-0.283923	0.172968	2.20553	1.65945	0.0215068	0.00774612
1.66	-0.0281559	-0.0409338	-0.0132378	1.22091	0.996969	-0.311571	0.451802	0.135815	0.0731642	-0.55653	0.214658	-0.0103617	-0.0050004	-0.0681915	0.0463778	0.0533697	-0.992491	-0.0732283	-0.0290214	-0.00540595	-0.194601	0.0977714	-0.0822537	-0.750065	-0.227009	-0.0967003	2.33092	1.72089	-0.00428751	0.00297748	-0.395011	-0.271078	0.151791	2.16792	1.66372	0.0215068	0.00774612
1.67	-0.0171274	-0.0456844	-0.0112094	1.21985	0.989854	-0.311355	0.466888	0.147525	0.0677767	-0.644886	0.230041	-0.0103617	-0.0050004	-0.0469164	0.0339268	0.045295	-1.06688	-0.0491046	-0.0290214	-0.00540595	-0.210517	0.102543	-0.0733836	-0.708864	-0.226586	-0.0895044	2.29751	1.7173	-0.00428751	0.00297748	-0.406187	-0.256018	0.128567	2.12452	1.67181	0.0215068	0.00774612
1.68	-0.00498649	-0.0511589	-0.00833621	1.21862	0.983042	-0.311328	0.476785	0.159693	0.0631601	-0.726774	0.251694	-0.0103617	-0.0050004	-0.024991	0.0210794	0.0397962	-1.13892	-0.0250604	-0.0290214	-0.00540595	-0.227914	0.108596	-0.0637411	-0.665358	-0.224877	-0.0828296	2.25914	1.71266	-0.00428751	0.00297748	-0.415215	-0.239268	0.104081	2.07563	1.68374	0.0215068	0.00774612
1.69	0.00774168	-0.0569751	-0.00451307	1.21725	0.976698	-0.311516	0.480561	0.171583	0.0592918	-0.799193	0.278973	-0.0103617	-0.0050004	-0.00218089	0.00879343	0.0379394	-1.20737	-0.00122553	-0.0290214	-0.00540595	-0.245946	0.115508	-0.0531948	-0.620608	-0.221489	-0.0771949	2.21705	1.70702	-0.00428751	0.00297748	-0.422316	-0.221592	0.0793254	2.02229	1.69899	0.0215068	0.00774612
1.7	0.0201995	-0.0626629	0.000292409	1.21576	0.970947	-0.311919	0.478051	0.18247	0.0560189	-0.860349	0.310481	-0.0103617	-0.0050004	0.021944	-0.00213596	0.040126	-1.2711	0.0221721	-0.0290214	-0.00540595	-0.263565	0.122736	-0.0415535	-0.576027	-0.216113	-0.0731548	2.17326	1.7006	-0.00428751	0.00297748	-0.428028	-0.203955	0.0554188	1.96641	1.71639	0.0215068	0.00774612
